<svg width="42" height="38" viewBox="0 0 42 38" fill="none" xmlns="http://www.w3.org/2000/svg">
<path d="M13.2451 7.93039C13.2451 7.93039 11.8039 17.1289 22.1367 20.1027C23.0069 10.1229 13.2451 7.93039 13.2451 7.93039Z" stroke="#2E2E2E" stroke-width="2" stroke-miterlimit="10" stroke-linecap="round" stroke-linejoin="round"/>
<path d="M30.7838 34.4675C30.7838 34.4675 38.7509 31.1157 39.893 20.9595C41.0078 10.8034 33.938 6.01509 33.938 6.01509C33.938 6.01509 25.9708 9.36688 24.8288 19.523C24.6928 20.9595 24.6928 22.27 24.8288 23.4797" stroke="#2E2E2E" stroke-width="2" stroke-miterlimit="10" stroke-linecap="round" stroke-linejoin="round"/>
<path d="M33.1223 33.1318C33.1223 33.1318 31.2733 25.1934 20.8317 22.018C10.3629 18.8174 3.78247 24.1853 3.78247 24.1853C3.78247 24.1853 5.6315 32.1238 16.0731 35.2991C26.5419 38.4997 33.1223 33.1318 33.1223 33.1318Z" stroke="#2E2E2E" stroke-width="2" stroke-miterlimit="10" stroke-linecap="round" stroke-linejoin="round"/>
<path d="M32.8503 32.9806L32.6328 16.5745" stroke="#2E2E2E" stroke-width="2" stroke-miterlimit="10" stroke-linecap="round" stroke-linejoin="round"/>
<path d="M32.4153 32.779L14.496 27.7639" stroke="#2E2E2E" stroke-width="2" stroke-miterlimit="10" stroke-linecap="round" stroke-linejoin="round"/>
<path d="M2.2869 21.8668C2.09656 20.8587 1.98779 19.7751 1.98779 18.7166C1.98779 13.4747 4.46224 8.76204 8.37784 5.51106" stroke="#2E2E2E" stroke-width="2" stroke-miterlimit="10" stroke-linecap="round" stroke-linejoin="round"/>
<path d="M11.6952 3.29333C14.4687 1.83165 17.6774 1 21.1035 1C25.0735 1 28.7716 2.13406 31.8442 4.04937" stroke="#2E2E2E" stroke-width="2" stroke-miterlimit="10" stroke-linecap="round" stroke-linejoin="round"/>
</svg>
